<?xml version="1.0" standalone="no"?>
<!DOCTYPE svg PUBLIC "-//W3C//DTD SVG 20010904//EN"
        "http://www.w3.org/TR/2001/REC-SVG-20010904/DTD/svg10.dtd">
<svg version="1.0" xmlns="http://www.w3.org/2000/svg"
     width="160.000000pt" height="160.000000pt" viewBox="0 0 160.000000 160.000000"
     preserveAspectRatio="xMidYMid meet">
    <metadata>
        Created by potrace 1.14, written by Peter Selinger 2001-2017
    </metadata>
    <g transform="translate(0.000000,160.000000) scale(0.100000,-0.100000)"
       fill="#000000" stroke="none">
        <path d="M570 1020 c-78 -14 -120 -59 -120 -130 0 -63 31 -94 122 -121 89 -27
115 -47 99 -77 -17 -31 -91 -30 -155 2 l-47 24 -20 -31 c-10 -18 -19 -36 -19
-40 0 -4 24 -19 53 -32 39 -19 69 -25 120 -25 117 0 167 39 167 129 0 61 -32
90 -137 126 -70 24 -89 34 -91 51 -2 11 4 27 12 34 23 19 92 14 132 -9 l34
-20 20 39 20 39 -31 16 c-40 21 -114 32 -159 25z"/>
        <path d="M812 983 l3 -38 68 -3 67 -3 0 -174 0 -175 45 0 45 0 0 175 0 175 65
0 65 0 0 40 0 40 -181 0 -180 0 3 -37z"/>
    </g>
</svg>
